<svg width="25" height="26" viewBox="0 0 25 26" fill="none" xmlns="http://www.w3.org/2000/svg">
<circle cx="12.4995" cy="13" r="12.5" fill="white"/>
<path d="M19.3844 18.3837C17.7753 17.3931 16.0421 16.8518 14.0919 16.731V15.8705C14.5094 15.6833 14.8824 15.417 15.1874 15.088H16.5011C17.2568 15.088 17.8719 14.4938 17.8719 13.7638V10.5414C17.8719 7.76154 15.5481 5.5 12.6919 5.5C9.83565 5.5 7.51193 7.76154 7.51193 10.5414V13.7638C7.51193 14.4938 8.12695 15.088 8.88295 15.088H10.1984C10.5033 15.4163 10.8753 15.6826 11.2919 15.8699V16.731C9.34187 16.8518 7.60867 17.3931 5.99951 18.3837L6.22421 18.7283C7.70541 17.8167 9.23491 17.3145 10.9989 17.1628C11.4752 17.403 12.0842 17.536 12.7268 17.536C13.3618 17.536 13.9722 17.4053 14.4471 17.1684C16.1848 17.3264 17.6958 17.8274 19.1594 18.7283L19.3844 18.3837ZM8.88295 14.68C8.35851 14.68 7.93193 14.269 7.93193 13.7638V10.5414C7.93193 7.98635 10.0672 5.90786 12.6919 5.90786C15.3165 5.90786 17.4519 7.98635 17.4519 10.5412V13.7638C17.4519 14.269 17.0254 14.68 16.5011 14.68H15.5097C15.7949 14.2538 15.9824 13.7596 16.0358 13.2259C16.2468 13.0767 16.4141 12.8278 16.4941 12.538C16.5653 12.2797 16.561 12.0152 16.4813 11.7937C16.4007 11.569 16.2458 11.4043 16.0519 11.3344V10.4021C16.1046 10.3972 16.1574 10.3931 16.209 10.3846C16.3233 10.3661 16.4007 10.2611 16.3815 10.1498C16.3623 10.0386 16.254 9.96325 16.1397 9.98215C14.9647 10.1728 13.2935 9.22681 13.1083 8.26746C13.0905 8.17512 13.0103 8.10658 12.9137 8.10127C12.8174 8.09692 12.7295 8.1554 12.701 8.24516C12.2771 9.58626 10.2681 10.2309 8.97675 10.26C8.86083 10.2627 8.76899 10.3562 8.77179 10.4688C8.77445 10.5797 8.86797 10.668 8.98165 10.668H8.98669C9.09687 10.6653 9.21321 10.6571 9.33179 10.646V11.3243C9.12347 11.3876 8.95673 11.5573 8.87189 11.7937C8.79237 12.0152 8.78789 12.2795 8.85915 12.538C8.94413 12.846 9.12347 13.1027 9.35013 13.2481C9.40655 13.7732 9.59275 14.2598 9.87443 14.68H8.88295ZM9.75935 13.1092L9.75067 12.9892L9.63839 12.9385C9.47613 12.8652 9.32955 12.6665 9.26501 12.4325C9.21601 12.2547 9.21741 12.071 9.26865 11.9279C9.29315 11.8598 9.35111 11.7412 9.46451 11.7115C9.48061 11.7074 9.49727 11.7051 9.52443 11.7051C9.52443 11.7051 9.52821 11.7051 9.53031 11.7051L9.75193 11.7174V10.5925C10.9198 10.397 12.2843 9.82426 12.8864 8.83758C13.3604 9.65942 14.5439 10.3371 15.6319 10.4069V11.7021L15.839 11.705C15.8559 11.7053 15.8726 11.7074 15.8886 11.7117C16.0024 11.7413 16.0603 11.8599 16.0847 11.9282C16.1359 12.0711 16.1373 12.2548 16.0883 12.4326C16.0263 12.6573 15.8912 12.8473 15.7354 12.9287L15.6331 12.9822L15.6255 13.0951C15.5248 14.5919 14.2361 15.7643 12.6919 15.7643C11.1553 15.7643 9.86729 14.5981 9.75935 13.1092ZM11.7119 16.9961V16.0275C12.023 16.1205 12.3517 16.1722 12.6919 16.1722C13.0323 16.1722 13.3609 16.1206 13.6719 16.028V17.015C13.3786 17.088 13.0579 17.1279 12.7269 17.1279C12.373 17.128 12.0247 17.0809 11.7119 16.9961Z" fill="#3805F2" stroke="#3805F2" stroke-width="0.4"/>
</svg>
