<svg width="32" height="32" viewBox="0 0 32 32" fill="none" xmlns="http://www.w3.org/2000/svg">
<circle cx="16" cy="16" r="16" fill="#3805F2"/>
<path d="M16.5009 10.3494C18.5026 10.3494 18.739 10.3582 19.5309 10.3935C20.006 10.3994 20.4766 10.4865 20.9224 10.651C21.2455 10.7761 21.5388 10.9673 21.7836 11.2124C22.0284 11.4576 22.2193 11.7512 22.3439 12.0744C22.5101 12.5199 22.5979 12.9907 22.6032 13.4661C22.6384 14.2564 22.6455 14.4945 22.6455 16.4965C22.6455 18.4985 22.6455 18.7348 22.6032 19.525C22.5979 20.0004 22.5101 20.4713 22.3439 20.9167C22.2193 21.24 22.0284 21.5336 21.7836 21.7788C21.5388 22.0239 21.2455 22.2151 20.9224 22.3402C20.4766 22.5047 20.006 22.5918 19.5309 22.5977C18.7407 22.6348 18.5026 22.6418 16.5009 22.6418C14.4991 22.6418 14.2628 22.6418 13.4727 22.5977C12.9975 22.592 12.5269 22.5049 12.0811 22.3402C11.7576 22.2155 11.4638 22.0244 11.2187 21.7793C10.9736 21.5341 10.7825 21.2403 10.6578 20.9167C10.4933 20.4709 10.4063 20.0002 10.4004 19.525C10.3633 18.7348 10.3563 18.4967 10.3563 16.4965C10.3563 14.4962 10.3563 14.2564 10.4004 13.4661C10.4063 12.9909 10.4933 12.5203 10.6578 12.0744C10.7781 11.7487 10.9697 11.4539 11.2187 11.2119C11.4614 10.9637 11.7559 10.7721 12.0811 10.651C12.5269 10.4863 12.9975 10.3992 13.4727 10.3935C14.2628 10.3582 14.4991 10.3494 16.5009 10.3494ZM16.5009 9C14.4656 9 14.2081 9.00882 13.4109 9.0441C12.7887 9.05846 12.1734 9.17773 11.5908 9.39687C11.0932 9.58993 10.6412 9.8846 10.2637 10.2621C9.88626 10.6396 9.59162 11.0916 9.39859 11.5894C9.17845 12.1711 9.05916 12.7861 9.04586 13.4079C9.00882 14.2087 9 14.4663 9 16.5C9 18.5337 9.00882 18.793 9.04586 19.5903C9.05944 20.2127 9.17872 20.8282 9.39859 21.4106C9.59202 21.9079 9.88682 22.3595 10.2642 22.7367C10.6417 23.1138 11.0934 23.4083 11.5908 23.6014C12.1731 23.8214 12.7886 23.9407 13.4109 23.9541C14.2099 23.9912 14.4691 24 16.5009 24C18.5326 24 18.7937 24 19.5926 23.9541C20.2144 23.9408 20.8293 23.8215 21.4109 23.6014C21.9088 23.4091 22.3609 23.1149 22.7385 22.7376C23.116 22.3604 23.4105 21.9084 23.6032 21.4106C23.8223 20.828 23.9415 20.2126 23.9559 19.5903C23.9912 18.7913 24 18.532 24 16.5C24 14.468 23.9912 14.207 23.9559 13.4079C23.9417 12.7862 23.8225 12.1713 23.6032 11.5894C23.4109 11.0912 23.1165 10.6388 22.739 10.2612C22.3614 9.88357 21.9091 9.58917 21.4109 9.39687C20.8291 9.17753 20.2143 9.05826 19.5926 9.0441C18.7919 9.00882 18.5344 9 16.5009 9Z" fill="white"/>
<path d="M16.5005 12.646C15.739 12.646 14.9946 12.8718 14.3615 13.2949C13.7283 13.718 13.2349 14.3194 12.9435 15.023C12.6521 15.7266 12.5758 16.5008 12.7244 17.2477C12.8729 17.9947 13.2396 18.6808 13.7781 19.2193C14.3165 19.7578 15.0025 20.1245 15.7494 20.2731C16.4962 20.4217 17.2703 20.3454 17.9738 20.054C18.6774 19.7625 19.2787 19.269 19.7017 18.6358C20.1248 18.0026 20.3506 17.2581 20.3506 16.4965C20.3508 15.9908 20.2514 15.49 20.058 15.0227C19.8646 14.5555 19.581 14.1309 19.2234 13.7733C18.8659 13.4157 18.4413 13.1321 17.9741 12.9386C17.5069 12.7452 17.0061 12.6458 16.5005 12.646ZM16.5005 18.9959C16.0061 18.9959 15.5229 18.8493 15.1119 18.5746C14.7008 18.2999 14.3805 17.9094 14.1914 17.4526C14.0023 16.9958 13.9529 16.4932 14.0495 16.0083C14.1461 15.5234 14.3843 15.078 14.734 14.7286C15.0836 14.3791 15.5291 14.1412 16.014 14.0449C16.4989 13.9487 17.0015 13.9984 17.4581 14.1879C17.9147 14.3773 18.3049 14.698 18.5793 15.1092C18.8537 15.5205 18.9999 16.0039 18.9996 16.4983C18.9994 16.8263 18.9345 17.151 18.8088 17.454C18.6831 17.7569 18.499 18.0321 18.2669 18.2639C18.0348 18.4957 17.7594 18.6794 17.4563 18.8047C17.1532 18.93 16.8284 18.9944 16.5005 18.9942V18.9959Z" fill="white"/>
<path d="M20.503 13.3939C20.9997 13.3939 21.4025 12.9911 21.4025 12.4943C21.4025 11.9975 20.9997 11.5947 20.503 11.5947C20.0062 11.5947 19.6035 11.9975 19.6035 12.4943C19.6035 12.9911 20.0062 13.3939 20.503 13.3939Z" fill="white"/>
</svg>
