<svg width="25" height="26" viewBox="0 0 25 26" fill="none" xmlns="http://www.w3.org/2000/svg">
<circle cx="12.4995" cy="13" r="12.5" fill="white"/>
<path fill-rule="evenodd" clip-rule="evenodd" d="M12.6139 6.5C11.232 6.5 9.88949 6.9604 8.79557 7.80325C7.78697 8.58016 7.0421 9.6442 6.656 10.8508C6.245 10.9092 5.86088 11.0979 5.5639 11.3942C5.20284 11.7546 4.99951 12.2439 4.99951 12.7537C4.99951 13.2635 5.20284 13.7531 5.5639 14.1133C5.86072 14.4095 6.2445 14.5986 6.65516 14.6567C7.28132 16.6169 8.83848 18.1531 10.826 18.7474C12.2685 19.1759 13.8183 19.0723 15.1903 18.4548C16.5623 17.8373 17.6661 16.7474 18.2991 15.3844C18.4093 15.1475 18.5036 14.9039 18.5829 14.6557C18.9902 14.5956 19.3708 14.4073 19.6655 14.1133C20.0265 13.7531 20.2297 13.2637 20.2297 12.7538C20.2297 12.244 20.0265 11.7546 19.6655 11.3943C19.3708 11.1002 18.9902 10.9116 18.5829 10.852C18.146 9.48561 17.2503 8.30689 16.0422 7.5188C15.9936 7.48709 15.9392 7.46527 15.8822 7.45457C15.8252 7.44388 15.7667 7.44451 15.7099 7.45645C15.6531 7.46839 15.5993 7.49139 15.5514 7.52414C15.5035 7.55689 15.4626 7.59875 15.4309 7.64734C15.3992 7.69591 15.3773 7.75026 15.3666 7.80727C15.3559 7.86429 15.3566 7.92285 15.3685 7.97962C15.3804 8.03638 15.4034 8.09024 15.4362 8.13812C15.469 8.186 15.5108 8.22695 15.5594 8.25865C16.6753 8.98664 17.4803 10.1014 17.8193 11.3875C17.8451 11.4854 17.9038 11.5715 17.9855 11.6314C18.0673 11.6912 18.1671 11.7212 18.2682 11.7162C18.2849 11.7155 18.2933 11.7152 18.3066 11.715C18.5827 11.7155 18.8468 11.8252 19.0418 12.0197C19.2373 12.2146 19.3468 12.4784 19.3468 12.7538C19.3468 13.0293 19.2366 13.293 19.0418 13.488C18.8468 13.6827 18.5827 13.7922 18.3068 13.7927C18.2901 13.7925 18.2817 13.7922 18.2684 13.7915C18.1672 13.7865 18.0673 13.8164 17.9856 13.8763C17.9038 13.9362 17.8451 14.0223 17.8193 14.1204C17.7392 14.4265 17.6312 14.7252 17.498 15.0125C16.9543 16.1828 16.0066 17.1188 14.8277 17.6493C13.6488 18.1799 12.3182 18.2692 11.0787 17.9011C9.28052 17.3634 7.89431 15.9314 7.41787 14.1204C7.39213 14.0225 7.33354 13.9364 7.25192 13.8765C7.1703 13.8167 7.07059 13.7866 6.96948 13.7915C6.95279 13.7923 6.93944 13.7927 6.92441 13.7927C6.64798 13.7925 6.38339 13.6825 6.18808 13.488C5.99276 13.293 5.88325 13.0293 5.88325 12.7538C5.88325 12.4784 5.99343 12.2146 6.18808 12.0197C6.38356 11.8245 6.64865 11.715 6.92541 11.715C6.93098 11.7151 6.93654 11.715 6.94211 11.7148C6.9588 11.7145 6.97382 11.7145 6.98885 11.7148C7.08804 11.7171 7.1851 11.6858 7.26439 11.6262C7.34367 11.5665 7.40056 11.4819 7.42589 11.386C7.72804 10.2406 8.40127 9.2272 9.34112 8.5032C10.2798 7.78005 11.4313 7.38658 12.6172 7.38358C13.1813 7.40194 13.6462 7.8136 13.73 8.36999C13.8134 8.92872 13.4881 9.4609 12.95 9.64086C12.412 9.82081 11.8291 9.59245 11.5585 9.09532C11.5025 8.99245 11.4079 8.91606 11.2955 8.88294C11.1832 8.84981 11.0622 8.86268 10.9594 8.9187C10.9084 8.94646 10.8635 8.98398 10.827 9.02912C10.7906 9.07426 10.7634 9.12614 10.747 9.1818C10.7306 9.23745 10.7254 9.29578 10.7315 9.35347C10.7377 9.41115 10.7552 9.46706 10.7829 9.51799C11.256 10.3864 12.292 10.7925 13.2302 10.4785C14.1685 10.1647 14.7504 9.21634 14.6034 8.23861C14.4565 7.26088 13.6216 6.52537 12.6324 6.50017L12.6139 6.5ZM10.6515 12.0489C10.3372 12.0489 10.0803 12.3105 10.0803 12.6306C10.0803 12.9508 10.3372 13.2127 10.6515 13.2127C10.9659 13.2127 11.2226 12.9508 11.2226 12.6306C11.2226 12.3105 10.9659 12.0489 10.6515 12.0489ZM14.578 12.0489C14.2637 12.0489 14.0066 12.3105 14.0066 12.6306C14.0066 12.9508 14.2637 13.2127 14.578 13.2127C14.8922 13.2127 15.1491 12.9508 15.1491 12.6306C15.1491 12.3105 14.8922 12.0489 14.578 12.0489ZM10.6884 14.7004C10.5772 14.7064 10.4723 14.7541 10.3948 14.834C10.3549 14.8761 10.3236 14.9257 10.3028 14.9798C10.282 15.034 10.2721 15.0918 10.2737 15.1498C10.2752 15.2078 10.2882 15.2649 10.3119 15.3179C10.3355 15.3709 10.3694 15.4188 10.4115 15.4587C10.9941 16.0221 11.7907 16.3337 12.621 16.3337C13.4512 16.3337 14.248 16.0221 14.8304 15.4587C14.8725 15.4188 14.9064 15.3709 14.93 15.3179C14.9537 15.2649 14.9666 15.2078 14.9682 15.1498C14.9697 15.0918 14.9598 15.034 14.9391 14.9798C14.9183 14.9257 14.887 14.8761 14.8471 14.834C14.8072 14.7919 14.7594 14.758 14.7064 14.7344C14.6534 14.7107 14.5962 14.6978 14.5382 14.6962C14.4802 14.6947 14.4225 14.7046 14.3683 14.7253C14.3141 14.7461 14.2645 14.7774 14.2224 14.8173C13.8136 15.2129 13.235 15.4441 12.6272 15.4441C12.0192 15.4441 11.4408 15.2129 11.0318 14.8173C10.9599 14.7479 10.8665 14.7049 10.7669 14.6954C10.7453 14.6934 10.7235 14.6929 10.7018 14.6941L10.6884 14.7004Z" fill="#3805F2"/>
</svg>
