<svg width="76" height="71" viewBox="0 0 76 71" fill="none" xmlns="http://www.w3.org/2000/svg">
<path fill-rule="evenodd" clip-rule="evenodd" d="M29.7859 14.8359L11.5786 32.3555C7.28788 36.4843 2.80893 40.8088 1.23815 46.5524C-0.303132 52.1882 0.138671 59.1451 6.77653 64.7442C12.2848 69.3905 18.0335 70.6913 22.8896 70.4781C30.0121 70.1654 35.7033 65.0776 40.9308 60.2298L64.3001 38.5578L72.8465 30.5478C74.0517 29.3155 77.0885 26.0703 74.4588 23.9138C72.3551 22.1886 69.8881 23.9755 69.2307 24.6943L59.3695 34.2447C59.1606 34.4055 59.0081 34.5257 58.9041 34.6093C59.8456 33.7934 64.0652 29.8291 61.3106 27.6107C58.681 25.4929 55.7226 28.5349 53.7815 30.5478C53.0762 31.2792 50.4633 33.7722 48.5222 35.477C45.0144 38.5578 39.9447 35.0045 43.2318 30.9995L52.4667 21.6136C52.5488 21.5263 52.6389 21.4321 52.7348 21.3317C54.1745 19.8252 56.9553 16.9154 54.7365 14.8359C52.3698 12.6177 48.8509 15.6574 47.8648 16.9924C46.4404 18.6355 43.0657 21.3056 40.962 18.8409C38.8583 16.3763 41.1811 13.9117 42.6055 12.9875L48.8509 7.13404C49.837 6.10712 51.4148 3.56036 49.837 1.58867C48.2592 -0.383017 45.2351 0.767134 43.9203 1.58867L29.7859 14.8359ZM21.7838 63.194C29.0606 63.194 34.9595 57.6653 34.9595 50.8452C34.9595 44.0252 29.0606 38.4965 21.7838 38.4965C14.5071 38.4965 8.60815 44.0252 8.60815 50.8452C8.60815 57.6653 14.5071 63.194 21.7838 63.194Z" fill="white"/>
<path d="M29.1816 50.2584C30.1252 50.7375 30.1252 52.0853 29.1816 52.5643L19.0452 57.7103C18.1851 58.1469 17.1669 57.522 17.1669 56.5573L17.1669 46.2654C17.1669 45.3008 18.1851 44.6758 19.0452 45.1125L29.1816 50.2584Z" fill="white"/>
</svg>
