<svg width="22" height="23" viewBox="0 0 22 23" fill="none" xmlns="http://www.w3.org/2000/svg">
<path fill-rule="evenodd" clip-rule="evenodd" d="M10.7519 0.599602C8.15496 0.797025 5.72169 1.94396 3.91666 3.82142C2.11162 5.69889 1.06126 8.17537 0.966112 10.7781C0.89134 12.9216 1.47661 15.0364 2.64278 16.8365L0 22.1532C0.0810287 22.1532 6.53216 20.4142 6.53216 20.4142C7.97126 21.1739 9.56687 21.5896 11.1937 21.6286C12.8205 21.6677 14.4342 21.3291 15.9081 20.6395C17.3821 19.9498 18.676 18.9279 19.6884 17.6539C20.7009 16.3799 21.4042 14.8885 21.7431 13.2969C22.0821 11.7053 22.0474 10.0568 21.6419 8.48088C21.2364 6.90493 20.4711 5.44443 19.4061 4.21408C18.3411 2.98373 17.0053 2.01703 15.5037 1.38989C14.0021 0.762742 12.3756 0.492233 10.7519 0.599602ZM11.4936 19.7909C9.96072 19.7906 8.45529 19.3841 7.13053 18.6129L6.79395 18.3948L6.41997 18.5194L3.52787 19.3297L4.77446 16.6246C3.52634 15.097 2.83518 13.1901 2.81464 11.2176C2.79409 9.24505 3.44538 7.32422 4.66142 5.77096C5.87745 4.21769 7.58584 3.12445 9.50567 2.671C11.4255 2.21755 13.4425 2.43088 15.225 3.27592C17.0075 4.12095 18.4494 5.54738 19.3136 7.32067C20.1778 9.09395 20.4128 11.1085 19.9801 13.0331C19.5473 14.9577 18.4726 16.6778 16.9325 17.9105C15.3924 19.1432 13.4787 19.8152 11.5061 19.8159L11.4936 19.7909Z" fill="#324EEA"/>
<path fill-rule="evenodd" clip-rule="evenodd" d="M15.5389 12.7043C15.3255 12.5354 15.0769 12.4169 14.8114 12.3576C14.5459 12.2982 14.2704 12.2995 14.0055 12.3615C13.6066 12.5235 13.3822 13.1468 13.0955 13.4647C13.0405 13.5394 12.9601 13.5914 12.8694 13.6109C12.7787 13.6304 12.684 13.6161 12.6031 13.5707C11.1455 12.9997 9.92249 11.9546 9.13135 10.6038C9.06589 10.5167 9.03535 10.4083 9.04573 10.2999C9.05611 10.1915 9.10666 10.0909 9.18745 10.0179C9.48066 9.73719 9.69551 9.38484 9.81075 8.99565C9.83282 8.57422 9.7356 8.15512 9.53026 7.78645C9.3659 7.26111 9.05442 6.79389 8.63271 6.44012C8.41545 6.34323 8.175 6.31052 7.93976 6.34587C7.70451 6.38121 7.48429 6.48312 7.30509 6.63958C6.99887 6.90299 6.75584 7.23192 6.594 7.602C6.43216 7.97208 6.35565 8.37383 6.37014 8.77749C6.37213 9.00624 6.39931 9.23408 6.45117 9.45689C6.97414 11.282 8.10157 12.8754 9.64869 13.9758C10.8953 14.9419 13.0332 16.2571 14.7099 15.9392C15.1257 15.875 15.5196 15.7102 15.8574 15.4593C16.1952 15.2084 16.4667 14.8789 16.6483 14.4994C16.7546 14.2675 16.7873 14.0086 16.7418 13.7576C16.6359 13.2528 15.9502 12.9536 15.5389 12.7043Z" fill="#324EEA"/>
</svg>
