<svg width="17" height="12" viewBox="0 0 17 12" fill="none" xmlns="http://www.w3.org/2000/svg">
<path d="M15.7558 10.1205C15.6648 10.4856 15.4855 10.8186 15.2359 11.0858C14.9863 11.353 14.6753 11.545 14.3342 11.6424C13.0903 12 8.08629 12 8.08629 12C8.08629 12 3.08407 12 1.83662 11.6424C1.49694 11.5441 1.18748 11.3516 0.939453 11.0844C0.691424 10.8172 0.513602 10.4847 0.423918 10.1205C0.0898446 8.78884 0.0898438 6 0.0898438 6C0.0898438 6 0.0898446 3.21497 0.423918 1.87952C0.513767 1.51535 0.691648 1.18295 0.939651 0.915786C1.18765 0.648618 1.49703 0.456111 1.83662 0.357642C3.08052 9.53674e-07 8.08629 0 8.08629 0C8.08629 0 13.0867 9.53674e-07 14.3342 0.357642C14.6752 0.455182 14.9861 0.647219 15.2357 0.914401C15.4853 1.18158 15.6647 1.51447 15.7558 1.87952C16.0898 3.21116 16.0898 6 16.0898 6C16.0898 6 16.0898 8.78503 15.7558 10.1205ZM6.49411 3.43183V8.56817L10.6487 6L6.49411 3.43183Z" fill="#3805F2"/>
</svg>
